<?xml version="1.0" encoding="UTF-8"?>
<svg width="146px" height="22px" viewBox="0 0 146 22" version="1.1" xmlns="http://www.w3.org/2000/svg" xmlns:xlink="http://www.w3.org/1999/xlink">
    <!-- Generator: Sketch 63.1 (92452) - https://sketch.com -->
    <title>Artboard</title>
    <desc>Created with Sketch.</desc>
    <g id="Artboard" stroke="none" stroke-width="1" fill="none" fill-rule="evenodd">
        <g id="codelibrary" transform="translate(22.000000, 1.000000)" fill="#000000" fill-rule="nonzero">
            <path d="M5.70798,16.61814 C7.79732,16.61814 9.13277,15.67749 10.25282,14.3785 L9.19738,13.34826 C8.31426,14.3337 7.21574,15.07278 5.79413,15.07278 C3.46786,15.07278 1.70162,13.0795 1.70162,10.5711 L1.70162,10.52631 C1.70162,8.04031 3.42478,6.04703 5.68644,6.04703 C7.19421,6.04703 8.18503,6.8309 9.06815,7.79395 L10.16667,6.58454 C9.13277,5.44232 7.81886,4.52407 5.70798,4.52407 C2.45551,4.52407 0,7.30123 0,10.5711 L0,10.61589 C0,13.86337 2.45551,16.61814 5.70798,16.61814 L5.70798,16.61814 Z M17.74859,16.61814 C21.10876,16.61814 23.58581,13.84098 23.58581,10.57111 L23.58581,10.52632 C23.58581,7.25644 21.1303,4.52408 17.79167,4.52408 C14.4315,4.52408 11.97599,7.30124 11.97599,10.57111 L11.97599,10.6159 C11.97599,13.88578 14.40996,16.61814 17.74859,16.61814 L17.74859,16.61814 Z M17.79167,15.0728 C15.44386,15.0728 13.67762,13.05711 13.67762,10.57111 L13.67762,10.52632 C13.67762,8.08511 15.33617,6.04704 17.74859,6.04704 C20.0964,6.04704 21.88418,8.08511 21.88418,10.57112 L21.88418,10.61591 C21.88418,13.05712 20.2041,15.0728 17.79167,15.0728 L17.79167,15.0728 Z M31.25388,16.59574 C33.30014,16.59574 34.61405,15.40873 35.51871,14.02015 L35.51871,16.34938 L37.17726,16.34938 L37.17726,0 L35.51871,0 L35.51871,6.98768 C34.65713,5.68869 33.32168,4.52407 31.25388,4.52407 C28.58298,4.52407 25.93361,6.76371 25.93361,10.54871 L25.93361,10.5935 C25.93361,14.40089 28.58297,16.59574 31.25388,16.59574 Z M31.55544,15.05039 C29.44456,15.05039 27.63524,13.30347 27.63524,10.57111 L27.63524,10.52632 C27.63524,7.72677 29.40148,6.06943 31.55544,6.06943 C33.62324,6.06943 35.58334,7.86114 35.58334,10.52632 L35.58334,10.57111 C35.58334,13.23628 33.62324,15.05039 31.55544,15.05039 Z M45.75,16.61815 C47.86088,16.61815 49.21787,15.74468 50.33792,14.44569 L49.30402,13.48264 C48.39936,14.46808 47.32238,15.11758 45.79307,15.11758 C43.81143,15.11758 42.10981,13.70661 41.87287,11.19821 L50.70408,11.19821 C50.72562,10.99664 50.72562,10.86226 50.72562,10.6383 C50.72562,7.25644 48.83014,4.52408 45.53459,4.52408 C42.45443,4.52408 40.19278,7.21165 40.19278,10.54872 L40.19278,10.59351 C40.19278,14.17694 42.69137,16.61815 45.74998,16.61815 L45.75,16.61815 Z M49.04555,9.92161 L41.87288,9.92161 C42.08828,7.65957 43.55296,5.97984 45.49152,5.97984 C47.71009,5.97984 48.87323,7.81635 49.04555,9.92161 L49.04555,9.92161 Z M56.67055,16.34938 L56.67055,0 L53.39654,0 L53.39654,16.34938 L56.67055,16.34938 Z M63.26165,3.02352 L63.26165,0 L59.81532,0 L59.81532,3.02352 L63.26165,3.02352 Z M63.17549,16.34938 L63.17549,4.3449 L59.90148,4.3449 L59.90148,16.34938 L63.17549,16.34938 Z M73.12677,16.57335 C75.86229,16.57335 78.38242,14.3785 78.38242,10.36954 L78.38242,10.32475 C78.38242,6.31579 75.81921,4.12094 73.12677,4.12094 C71.42515,4.12094 70.32663,4.94961 69.52967,6.06943 L69.52967,1.77635684e-15 L66.25566,1.77635684e-15 L66.25566,16.34938 L69.52967,16.34938 L69.52967,14.78163 C70.30509,15.74468 71.38207,16.57335 73.12677,16.57335 L73.12677,16.57335 Z M72.28672,13.68421 C70.75741,13.68421 69.48658,12.36282 69.48658,10.36954 L69.48658,10.32475 C69.48658,8.33147 70.75741,7.01008 72.28672,7.01008 C73.81603,7.01008 75.1084,8.33147 75.1084,10.32475 L75.1084,10.36954 C75.1084,12.38522 73.81603,13.68421 72.28672,13.68421 Z M84.06886,16.34939 L84.06886,11.91489 C84.06886,9.04815 85.40431,7.68197 87.57981,7.68197 L87.75213,7.68197 L87.75213,4.12094 C85.81357,4.03135 84.73659,5.10638 84.06887,6.76372 L84.06887,4.34491 L80.79486,4.34491 L80.79486,16.34939 L84.06886,16.34939 Z M92.5339,16.57335 C94.12783,16.57335 95.22634,15.96865 96.02331,15.05039 L96.02331,16.34938 L99.18962,16.34938 L99.18962,9.38409 C99.18962,7.77155 98.80191,6.45016 97.94033,5.5543 C97.12183,4.70324 95.82945,4.21052 94.04167,4.21052 C92.08157,4.21052 90.83228,4.59126 89.56144,5.17357 L90.37994,7.77155 C91.43538,7.36841 92.3185,7.12205 93.56779,7.12205 C95.2048,7.12205 96.04484,7.90592 96.04484,9.3169 L96.04484,9.51847 C95.22634,9.22732 94.38629,9.02575 93.22316,9.02575 C90.48764,9.02575 88.57062,10.23516 88.57062,12.85554 L88.57062,12.90033 C88.57062,15.27435 90.3584,16.57335 92.5339,16.57335 L92.5339,16.57335 Z M93.52472,14.22172 C92.46928,14.22172 91.73694,13.68421 91.73694,12.76595 L91.73694,12.72116 C91.73694,11.64613 92.59852,11.06383 93.99859,11.06383 C94.79555,11.06383 95.5279,11.243 96.08793,11.51176 L96.08793,12.11646 C96.08793,13.34826 95.05403,14.22172 93.52472,14.22172 L93.52472,14.22172 Z M105.28531,16.34939 L105.28531,11.91489 C105.28531,9.04815 106.62076,7.68197 108.79626,7.68197 L108.96858,7.68197 L108.96858,4.12094 C107.03002,4.03135 105.95304,5.10638 105.28532,6.76372 L105.28532,4.34491 L102.01131,4.34491 L102.01131,16.34939 L105.28531,16.34939 Z M113.77189,20.00001 C115.73199,20.00001 116.67973,19.08175 117.56285,16.64054 L122,4.34491 L118.59675,4.34491 L116.07662,12.5196 L113.4488,4.34491 L109.98093,4.34491 L114.50424,16.39418 C114.22423,16.99888 113.92267,17.17805 113.36264,17.17805 C112.93185,17.17805 112.39336,16.97648 111.96257,16.70773 L110.86405,19.17134 C111.70409,19.68646 112.58721,20.00001 113.77189,20.00001 L113.77189,20.00001 Z" id="Shape"></path>
        </g>
        <g id="Shape" transform="translate(1.000000, 2.000000)" fill="#000000" fill-rule="nonzero">
            <path d="M5.80061347,9.95143874 C5.88350347,9.74001874 5.92286347,9.51402874 5.91632347,9.28701874 C5.91683347,9.06703874 5.87763347,8.84877874 5.80061347,8.64272874 C5.72526347,8.44400874 5.61062347,8.26254874 5.46356347,8.10917874 C5.32047347,7.95871874 5.14964347,7.83735874 4.96049347,7.75179874 C4.76236347,7.66456874 4.54812347,7.61997874 4.33166347,7.62089449 C4.11348347,7.62860874 3.89931347,7.68175874 3.70283347,7.77695874 C3.51054347,7.85459874 3.33849347,7.97510874 3.19976347,8.12929874 C3.06398347,8.27607874 2.95653347,8.44673874 2.88283347,8.63264874 C2.80930347,8.84270874 2.77519347,9.06454874 2.78222347,9.28699874 C2.78045347,9.50918874 2.82145347,9.72962874 2.90296347,9.93631874 C2.98079347,10.1224287 3.09157347,10.2929387 3.22995347,10.4396687 C3.37304347,10.5901287 3.54387347,10.7114887 3.73302347,10.7970487 C3.93082347,10.8853087 4.14529347,10.9299487 4.36185347,10.9279187 C5.00908347,10.9368687 5.58995347,10.5318587 5.80565347,9.92121874 L5.80061347,9.95143874 Z M10.2980335,9.80043874 C10.4320835,9.42791874 10.4320835,9.02028874 10.2980335,8.64776874 C10.2329335,8.48630874 10.1391935,8.33794874 10.0213435,8.20985874 C9.91035347,8.08749874 9.77497347,7.98975874 9.62392347,7.92294874 C9.47273347,7.85902874 9.31014347,7.82649874 9.14601347,7.82730874 C8.98178347,7.82547874 8.81899347,7.85805874 8.66810347,7.92294874 C8.51682347,7.98237874 8.38095347,8.07529874 8.27068347,8.19475874 C8.15155347,8.32283874 8.05919347,8.47342874 7.99902347,8.63770874 C7.92975347,8.82619874 7.89564347,9.02580874 7.89841347,9.22662874 C7.89654347,9.42408874 7.93063347,9.62023874 7.99902347,9.80547874 C8.05919347,9.96974874 8.15155347,10.1203487 8.27068347,10.2484287 C8.38216347,10.3677287 8.51760347,10.4620687 8.66810347,10.5252687 C8.81862347,10.5918887 8.98143347,10.6261787 9.14601347,10.62594 C9.31048347,10.6250287 9.47305347,10.5907787 9.62392347,10.5252687 C9.77474347,10.4603287 9.91016347,10.3642787 10.0213435,10.2433987 C10.1392635,10.1134587 10.2329735,9.96344874 10.2980335,9.80044874 L10.2980335,9.80043874 Z M13.5981535,8.19475874 L13.5981535,8.19475874 C13.5981535,8.37092874 13.8496835,8.45146874 14.3225735,8.59239874 C15.2029435,8.83903874 15.8971735,9.14104874 15.8971735,10.0068087 L15.8971735,10.0068087 C15.8971735,11.0135087 15.1677235,11.5168487 14.0811035,11.5168487 C13.3280735,11.5253387 12.5917735,11.2944587 11.9782835,10.8574587 L12.5618435,9.91116874 C13.0078835,10.2170287 13.5307935,10.3914287 14.0710435,10.4145187 C14.3427035,10.4145187 14.4634335,10.3289487 14.4634335,10.1729087 L14.4634335,10.1729087 C14.4634335,10.0017687 14.2169335,9.92626874 13.7490735,9.79539874 C12.8687035,9.56385874 12.1694435,9.26687874 12.1694435,8.37092874 L12.1694435,8.37092874 C12.1694435,7.42463874 12.9290735,6.89611874 13.9553335,6.89611874 C14.6005135,6.89112874 15.2344235,7.06537874 15.7864935,7.39946874 L15.2532435,8.40616874 C14.8527435,8.17101874 14.4034235,8.03149874 13.9402335,7.99845874 C13.6987635,7.99845874 13.5780235,8.08905874 13.5780235,8.20986874 L13.5981535,8.19475874 Z M11.3846735,11.4262487 L10.3785335,11.4262487 L10.3785335,10.7064587 C10.2186835,10.9391487 10.0174735,11.1404687 9.78491347,11.3004087 C9.52037347,11.4667887 9.21173347,11.5492487 8.89951347,11.5369787 C8.37772347,11.5410587 7.87731347,11.3298587 7.51608347,10.9530987 C7.32200347,10.7451287 7.16845347,10.5027187 7.06332347,10.2383487 C6.94323347,9.93237874 6.88509347,9.60558874 6.89228347,9.27695874 C6.88148347,8.93704874 6.93790347,8.59835874 7.05829347,8.28032874 C7.16170347,8.01623874 7.31355347,7.77381874 7.50602347,7.56557874 C7.68597347,7.37412874 7.90581347,7.22461874 8.14995347,7.12766874 C8.38745347,7.02850874 8.64217347,6.97719874 8.89952347,6.97666874 C9.21268347,6.96404874 9.52255347,7.04461874 9.78995347,7.20820874 C10.0171835,7.36276874 10.2162635,7.55514874 10.3785435,7.77698874 L10.3785435,5.42131874 L11.3846735,5.42131874 L11.3846735,11.4262487 Z M6.55521347,9.28701874 C6.55655347,9.58201874 6.50015347,9.87442874 6.38920347,10.1477387 C6.28248347,10.4121487 6.12527347,10.6532187 5.92638347,10.8574587 C5.50495347,11.2858087 4.92731347,11.5238987 4.32663347,11.5168487 C4.02424347,11.5187687 3.72465347,11.4588187 3.44626347,11.3406787 C3.18398347,11.2177587 2.94686347,11.0470687 2.74700347,10.8373287 C2.54975347,10.6346987 2.39420347,10.3952687 2.28921347,10.1326387 C2.17777347,9.86122874 2.12134347,9.57036874 2.12320347,9.27694874 C2.12186347,8.98194874 2.17826347,8.68953874 2.28921347,8.41622874 C2.39409347,8.15204874 2.54961347,7.91094874 2.74700347,7.70650874 C2.94796347,7.49580874 3.18692347,7.32502874 3.45129347,7.20315874 C3.73469347,7.08408874 4.03939347,7.02413874 4.34675347,7.02698874 C4.94148347,7.02270874 5.51280347,7.25862874 5.93141347,7.68133874 C6.13026347,7.88368874 6.28751347,8.12309874 6.39423347,8.38602874 C6.51001347,8.67186874 6.56484347,8.97874874 6.55521347,9.28701874 L6.55521347,9.28701874 Z M17.9899335,8.99507874 C17.9878935,5.35405874 15.7934435,2.07297874 12.4302935,0.682448744 C9.06714347,-0.708081256 5.19794347,0.065918744 2.62767347,2.64338874 C0.0574034653,5.22085874 -0.707506535,9.09393874 0.689773465,12.4558487 C2.08705347,15.8177587 5.37120347,18.0060787 9.01019347,18 C13.9751235,18 18,13.9728587 18,9.00514874 L17.9899335,8.99507874 Z"></path>
        </g>
    </g>
</svg>