<?xml version="1.0" encoding="UTF-8"?>
<svg width="105px" height="105px" viewBox="0 0 105 105" version="1.1" xmlns="http://www.w3.org/2000/svg" xmlns:xlink="http://www.w3.org/1999/xlink">
    <!-- Generator: Sketch 54.1 (76490) - https://sketchapp.com -->
    <title>Shape</title>
    <desc>Created with Sketch.</desc>
    <g id="Page-1" stroke="none" stroke-width="1" fill="none" fill-rule="evenodd">
        <g id="Les-sigles" fill="#1D1D1B" fill-rule="nonzero">
            <path d="M34.31,58.1 C34.75,56.95 34.98,55.7 34.98,54.38 C34.98,53.05 34.75,51.8 34.29,50.63 C33.83,49.46 33.19,48.44 32.36,47.57 C31.54,46.7 30.57,46.01 29.46,45.5 C28.35,45 27.15,44.74 25.85,44.74 C24.52,44.74 23.3,44.99 22.19,45.48 C21.08,45.97 20.14,46.65 19.36,47.52 C18.58,48.39 17.97,49.4 17.53,50.56 C17.08,51.71 16.86,52.96 16.86,54.29 C16.86,55.62 17.09,56.87 17.55,58.04 C18.01,59.21 18.64,60.22 19.45,61.08 C20.26,61.94 21.22,62.62 22.33,63.12 C23.44,63.63 24.65,63.88 25.94,63.88 C27.27,63.88 28.49,63.63 29.6,63.14 C30.71,62.65 31.66,61.98 32.45,61.12 C33.25,60.25 33.86,59.25 34.31,58.1 L34.31,58.1 Z M60.27,57.39 C60.67,56.41 60.86,55.3 60.86,54.06 C60.86,52.82 60.66,51.71 60.27,50.73 C59.88,49.75 59.35,48.9 58.68,48.18 C58.02,47.47 57.24,46.92 56.36,46.54 C55.47,46.16 54.56,45.97 53.61,45.97 C52.63,45.97 51.71,46.15 50.84,46.52 C49.97,46.88 49.2,47.42 48.54,48.11 C47.88,48.81 47.35,49.66 46.97,50.66 C46.59,51.66 46.4,52.79 46.4,54.06 C46.4,55.3 46.59,56.41 46.97,57.41 C47.35,58.41 47.87,59.26 48.54,59.95 C49.2,60.65 49.97,61.19 50.84,61.57 C51.71,61.95 52.63,62.14 53.61,62.14 C54.56,62.14 55.47,61.95 56.36,61.57 C57.24,61.19 58.02,60.64 58.68,59.93 C59.35,59.22 59.88,58.37 60.27,57.39 L60.27,57.39 Z M79.29,47.94 L79.29,48.04 C79.29,49.04 80.76,49.52 83.47,50.32 C88.56,51.75 92.6,53.5 92.6,58.5 L92.6,58.6 C92.6,64.26 88.37,67.2 82.1,67.2 C77.78,67.2 73.5,65.96 69.93,63.4 L73.31,57.93 C76.26,59.88 79.49,60.88 82.15,60.88 C83.72,60.88 84.43,60.4 84.43,59.5 L84.43,59.4 C84.43,58.4 83,57.98 80.3,57.22 C75.21,55.89 71.17,54.18 71.17,48.99 L71.17,48.9 C71.17,43.43 75.55,40.39 81.49,40.39 C85.25,40.39 89.14,41.48 92.09,43.38 L89,49.08 C86.34,47.61 83.44,46.7 81.39,46.7 C80,46.7 79.29,47.22 79.29,47.94 L79.29,47.94 Z M66.57,66.62 L60.77,66.62 L60.77,62.43 C59.85,63.73 58.71,64.84 57.33,65.76 C55.95,66.68 54.25,67.14 52.23,67.14 C50.74,67.14 49.3,66.86 47.91,66.29 C46.52,65.72 45.28,64.87 44.21,63.74 C43.14,62.62 42.26,61.24 41.6,59.63 C40.94,58.01 40.6,56.16 40.6,54.07 C40.6,51.98 40.93,50.12 41.57,48.51 C42.22,46.89 43.08,45.52 44.16,44.4 C45.24,43.27 46.48,42.43 47.89,41.86 C49.3,41.29 50.74,41 52.23,41 C54.28,41 55.99,41.44 57.35,42.33 C58.71,43.22 59.85,44.25 60.76,45.42 L60.76,31.9 L66.56,31.9 L66.56,66.62 L66.57,66.62 Z M38.73,54.3 C38.73,56.04 38.4,57.7 37.76,59.27 C37.11,60.84 36.21,62.21 35.07,63.38 C33.93,64.55 32.56,65.48 30.98,66.16 C29.39,66.84 27.68,67.18 25.84,67.18 C24,67.18 22.31,66.84 20.75,66.16 C19.2,65.48 17.85,64.56 16.71,63.4 C15.57,62.24 14.68,60.89 14.05,59.33 C13.41,57.78 13.1,56.13 13.1,54.38 C13.1,52.64 13.42,50.98 14.05,49.41 C14.68,47.84 15.57,46.47 16.71,45.3 C17.85,44.13 19.21,43.2 20.78,42.52 C22.35,41.84 24.07,41.5 25.94,41.5 C27.78,41.5 29.48,41.84 31.05,42.52 C32.62,43.2 33.97,44.12 35.12,45.28 C36.26,46.44 37.15,47.79 37.78,49.35 C38.42,50.91 38.73,52.56 38.73,54.3 L38.73,54.3 Z M104.85,52.6 C104.85,23.88 81.57,0.6 52.85,0.6 C24.13,0.6 0.85,23.88 0.85,52.6 C0.85,81.32 24.13,104.6 52.85,104.6 C81.57,104.6 104.85,81.32 104.85,52.6 L104.85,52.6 Z" id="Shape"></path>
        </g>
    </g>
</svg>
