<svg>
  <defs>
    <g id="link-2">
      <path d="M10 13a5 5 0 0 0 7.54.54l3-3a5 5 0 0 0-7.07-7.07l-1.72 1.71"></path>
      <path d="M14 11a5 5 0 0 0-7.54-.54l-3 3a5 5 0 0 0 7.07 7.07l1.71-1.71"></path>
    </g>

    <g id="check">
      <polyline points="20 6 9 17 4 12"></polyline>
    </g>

    <g id="copy">
      <rect x="9" y="9" width="13" height="13" rx="2" ry="2"></rect>
      <path d="M5 15H4a2 2 0 0 1-2-2V4a2 2 0 0 1 2-2h9a2 2 0 0 1 2 2v1"></path>
    </g>

    <g id="external">
      <path d="M18 13v6a2 2 0 0 1-2 2H5a2 2 0 0 1-2-2V8a2 2 0 0 1 2-2h6"></path>
      <polyline points="15 3 21 3 21 9"></polyline>
      <line x1="10" y1="14" x2="21" y2="3"></line>
    </g>

  </defs>
</svg>
